# xmcd
#
# Track frame offsets:
#   150
#   15025
#   31438
#   47506
#   59191
#   74025
#   91419
#   106948
#   121619
#   135257
#   144883
#   159634
#   173157
#   186711
#   199650
#   215397
#   231230
#   245715
#   263548
#   278050
#
# Disc length: 3893 seconds
#
# Revision: 0
# Processed by: cddbd v1.5.1PL2 Copyright (c) Steve Scherf et al.
# Submitted via: GXTranscoder 2.0.1939
#
DISCID=1b0f3314
DTITLE=Oberstaufen - Jetzt wird gefastet!
DYEAR=1900
DGENRE=Blues
TTITLE0=a
TTITLE1=b
TTITLE2=c
TTITLE3=d
TTITLE4=e
TTITLE5=f
TTITLE6=g
TTITLE7=h
TTITLE8=i
TTITLE9=j
TTITLE10=k
TTITLE11=l
TTITLE12=m
TTITLE13=n
TTITLE14=o
TTITLE15=p
TTITLE16=q
TTITLE17=r
TTITLE18=s
TTITLE19=t
EXTD=
EXTT0=
EXTT1=
EXTT2=
EXTT3=
EXTT4=
EXTT5=
EXTT6=
EXTT7=
EXTT8=
EXTT9=
EXTT10=
EXTT11=
EXTT12=
EXTT13=
EXTT14=
EXTT15=
EXTT16=
EXTT17=
EXTT18=
EXTT19=
PLAYORDER=
